<svg width="42" height="42" viewBox="0 0 42 42" fill="none" xmlns="http://www.w3.org/2000/svg">
<path fill-rule="evenodd" clip-rule="evenodd" d="M10.0804 31.6218C9.1136 32.2154 8.46875 33.2824 8.46875 34.5C8.46875 36.364 9.97974 37.875 11.8438 37.875C13.7078 37.875 15.2188 36.364 15.2188 34.5C15.2188 32.7855 13.9403 31.3696 12.2846 31.1536C12.2477 31.0214 12.2093 30.8691 12.1701 30.6982C12.0353 30.1094 11.9067 29.3624 11.811 28.5951C11.715 27.8264 11.6555 27.0642 11.6516 26.4422C11.6501 26.2141 11.6563 26.0155 11.6689 25.8489C12.1017 25.7247 12.5357 25.6128 12.9688 25.5142C13.4652 25.4011 13.7591 25.9871 13.9971 26.462C14.0303 26.5281 14.0624 26.592 14.0938 26.6517H18.6656C19.6959 26.6514 20.2052 26.6516 20.7203 26.6517C21.2236 26.6518 21.7332 26.6519 22.7395 26.6517H27.3117C27.5684 26.164 28.1531 25.3854 28.7188 25.5142C29.3221 25.6517 29.9276 25.8148 30.5288 26.0013L30.525 26.0031C30.5237 26.0005 30.5238 26.001 30.5252 26.0048C30.5305 26.0205 30.5552 26.0941 30.5797 26.2536C30.6077 26.4352 30.6272 26.6712 30.6352 26.9554C30.6512 27.5227 30.6193 28.2124 30.5522 28.9073C30.4849 29.6013 30.385 30.2733 30.2725 30.8037C30.2476 30.9212 30.2228 31.0284 30.1984 31.125H28.7188C28.2926 31.125 27.9031 31.3657 27.7126 31.7469L26.5876 33.9969C26.5094 34.153 26.4688 34.3254 26.4688 34.5V36.75C26.4688 37.3713 26.9724 37.875 27.5938 37.875H29.8438V35.625H28.7188V34.7656L29.414 33.375H32.5235L33.2188 34.7656V35.625H32.0938V37.875H34.3438C34.9651 37.875 35.4688 37.3713 35.4688 36.75V34.5C35.4688 34.3254 35.4281 34.153 35.35 33.9969L34.225 31.7469C34.0344 31.3657 33.6449 31.125 33.2188 31.125H32.5036C32.6237 30.5257 32.7238 29.8254 32.7916 29.124C32.8651 28.3657 32.9035 27.5788 32.8843 26.8923L32.8834 26.8614C37.3694 28.7568 41.0938 31.8744 41.0938 35.1411V41.25H0.59375V35.1411C0.59375 31.7298 4.65492 28.4811 9.40363 26.6171C9.41645 27.3164 9.48271 28.108 9.57823 28.8736C9.68139 29.7002 9.82201 30.5235 9.97692 31.2003C10.0101 31.3453 10.0447 31.4865 10.0804 31.6218ZM11.8438 35.6415C12.4495 35.6415 12.9688 35.146 12.9688 34.5C12.9688 33.854 12.4495 33.3585 11.8438 33.3585C11.238 33.3585 10.7188 33.854 10.7188 34.5C10.7188 35.146 11.238 35.6415 11.8438 35.6415ZM20.8438 21C20.7222 14.5 20.7203 16.9706 20.7203 12C20.8225 7 20.8225 7 20.8438 3C20.8438 10.5 20.8144 6.98049 20.7203 12C20.7203 16.9706 20.7203 14 20.8438 21ZM20.8438 23.25C27.0569 23.25 32.0938 18.2132 32.0938 12C32.0938 5.78685 27.0569 0.75 20.8438 0.75C14.6306 0.75 9.59375 5.78685 9.59375 12C9.59375 18.2132 14.6306 23.25 20.8438 23.25Z" fill="#5DADEC"/>
</svg>
