<svg width="454" height="454" viewBox="0 0 454 454" fill="none" xmlns="http://www.w3.org/2000/svg">
<path d="M150.163 68.8863C150.163 68.8863 81.5149 103.867 47.2771 157.765C13.0394 211.663 15.7483 280.981 57.3519 332.424C98.9554 383.866 178.475 377.153 245.057 409.769C311.639 442.385 385.097 435.662 416.581 366.589C448.064 297.515 400.59 271.667 392.436 191.749C384.282 111.831 312.228 -5.17916 150.163 68.8863Z" fill="#243573"/>
<path opacity="0.7" d="M150.163 68.8863C150.163 68.8863 81.5149 103.867 47.2771 157.765C13.0394 211.663 15.7483 280.981 57.3519 332.424C98.9554 383.866 178.475 377.153 245.057 409.769C311.639 442.385 385.097 435.662 416.581 366.589C448.064 297.515 400.59 271.667 392.436 191.749C384.282 111.831 312.228 -5.17916 150.163 68.8863Z" fill="white"/>
<path d="M423.784 248.048H420.024V247.405C420.022 245.649 419.323 243.966 418.082 242.724C416.84 241.483 415.157 240.784 413.401 240.782H410.855C409.098 240.782 407.412 241.479 406.169 242.721C404.925 243.963 404.226 245.647 404.223 247.405V248.048H400.472C399.971 248.047 399.475 248.144 399.011 248.336C398.548 248.527 398.127 248.808 397.773 249.162C397.418 249.517 397.137 249.938 396.946 250.401C396.755 250.864 396.657 251.361 396.658 251.862V269.239C396.658 270.251 397.06 271.221 397.775 271.936C398.491 272.652 399.461 273.053 400.472 273.053H423.784C424.795 273.051 425.764 272.648 426.478 271.934C427.193 271.219 427.596 270.25 427.598 269.239V251.862C427.598 250.85 427.196 249.88 426.481 249.165C425.766 248.45 424.795 248.048 423.784 248.048ZM406.035 247.405C406.038 246.128 406.547 244.904 407.45 244.002C408.354 243.1 409.578 242.594 410.855 242.594H413.401C414.677 242.594 415.901 243.101 416.803 244.003C417.705 244.905 418.212 246.129 418.212 247.405V248.048H406.035V247.405Z" fill="#263238"/>
<path d="M419.074 258.775H414.272V253.982H409.978V258.775H405.176V263.078H409.978V267.871H414.272V263.078H419.074V258.775Z" fill="white"/>
<path d="M416.354 144.492C415.608 144.492 414.868 144.345 414.178 144.059C413.489 143.773 412.862 143.353 412.334 142.825C411.807 142.296 411.389 141.669 411.104 140.979C410.819 140.289 410.673 139.549 410.674 138.802V123.473C410.673 122.726 410.819 121.986 411.104 121.296C411.389 120.606 411.807 119.979 412.334 119.45C412.862 118.922 413.489 118.502 414.178 118.216C414.868 117.93 415.608 117.783 416.354 117.783C417.101 117.783 417.841 117.93 418.53 118.216C419.22 118.502 419.847 118.922 420.374 119.45C420.902 119.979 421.32 120.606 421.605 121.296C421.89 121.986 422.036 122.726 422.035 123.473V138.775C422.04 139.524 421.896 140.267 421.613 140.96C421.33 141.654 420.912 142.284 420.384 142.815C419.856 143.347 419.228 143.768 418.537 144.056C417.845 144.344 417.103 144.492 416.354 144.492Z" fill="white" stroke="#263238" stroke-linecap="round" stroke-linejoin="round"/>
<path d="M416.354 144.492C415.608 144.492 414.868 144.345 414.178 144.059C413.489 143.773 412.862 143.353 412.334 142.825C411.807 142.297 411.389 141.669 411.104 140.979C410.819 140.289 410.673 139.549 410.674 138.802V131.147H422.035V138.802C422.036 139.549 421.89 140.289 421.605 140.979C421.32 141.669 420.902 142.297 420.374 142.825C419.847 143.353 419.22 143.773 418.53 144.059C417.841 144.345 417.101 144.492 416.354 144.492Z" fill="#263238" stroke="#263238" stroke-linecap="round" stroke-linejoin="round"/>
<path d="M387.779 121.914C387.312 121.331 386.965 120.661 386.758 119.943C386.55 119.225 386.487 118.473 386.571 117.731C386.655 116.988 386.886 116.269 387.248 115.616C387.611 114.963 388.1 114.388 388.685 113.924L400.617 104.338C401.799 103.399 403.305 102.967 404.805 103.137C406.305 103.306 407.676 104.064 408.617 105.244C409.556 106.424 409.988 107.929 409.818 109.427C409.648 110.925 408.891 112.295 407.711 113.235L395.77 122.811C395.187 123.278 394.518 123.625 393.8 123.832C393.083 124.04 392.331 124.103 391.589 124.02C390.847 123.937 390.128 123.708 389.475 123.347C388.821 122.985 388.245 122.499 387.779 121.914Z" fill="white" stroke="#263238" stroke-linecap="round" stroke-linejoin="round"/>
<path d="M387.779 121.915C387.312 121.331 386.965 120.661 386.758 119.943C386.55 119.225 386.487 118.473 386.571 117.731C386.655 116.988 386.886 116.27 387.248 115.616C387.611 114.963 388.1 114.388 388.685 113.924L394.656 109.131L401.768 118.001L395.798 122.784C395.215 123.256 394.545 123.609 393.826 123.821C393.107 124.033 392.353 124.1 391.607 124.019C390.862 123.938 390.14 123.711 389.483 123.35C388.826 122.988 388.247 122.501 387.779 121.915Z" fill="#263238" stroke="#263238" stroke-linecap="round" stroke-linejoin="round"/>
<path d="M330.964 80.2022C330.256 80.2025 329.565 80.4243 328.989 80.8364L315.789 70.5896C316.436 69.3922 316.739 68.0393 316.666 66.6803C316.592 65.3213 316.144 64.0091 315.372 62.8886L323.435 52.5783C324.118 52.8414 324.867 52.8792 325.572 52.686C326.277 52.4929 326.902 52.079 327.356 51.505C327.809 50.9309 328.066 50.2269 328.09 49.4959C328.115 48.7649 327.904 48.0454 327.49 47.4428C327.075 46.8401 326.479 46.3859 325.788 46.1466C325.097 45.9074 324.347 45.8957 323.649 46.1133C322.951 46.3309 322.34 46.7663 321.907 47.3557C321.474 47.9452 321.242 48.6578 321.243 49.3892C321.239 50.094 321.458 50.7821 321.868 51.3552L314.022 61.4027C312.97 60.5168 311.692 59.9415 310.331 59.7415C308.97 59.5414 307.58 59.7245 306.318 60.2702C305.055 60.8159 303.97 61.7025 303.183 62.8308C302.396 63.959 301.939 65.2841 301.864 66.6575H292.695C292.595 65.8437 292.206 65.0927 291.599 64.5413C290.992 63.9898 290.208 63.6744 289.388 63.6523C288.568 63.6302 287.768 63.903 287.132 64.4211C286.497 64.9391 286.068 65.668 285.924 66.4753C285.78 67.2826 285.931 68.1147 286.349 68.8203C286.766 69.5259 287.424 70.0583 288.2 70.3205C288.977 70.5828 289.823 70.5576 290.582 70.2495C291.342 69.9414 291.967 69.3709 292.341 68.6417H302.036C302.319 69.959 302.957 71.174 303.879 72.1561C304.802 73.1383 305.975 73.8502 307.272 74.2155C308.569 74.5808 309.941 74.5855 311.241 74.2291C312.54 73.8728 313.718 73.1689 314.647 72.1932L327.775 82.4038C327.516 83.0849 327.482 83.8309 327.677 84.5329C327.872 85.2349 328.287 85.8561 328.86 86.3057C329.434 86.7553 330.136 87.0097 330.864 87.0319C331.592 87.054 332.309 86.8427 332.908 86.4287C333.508 86.0148 333.959 85.4199 334.197 84.7311C334.434 84.0422 334.445 83.2955 334.228 82.5999C334.011 81.9044 333.577 81.2965 332.99 80.8652C332.403 80.4338 331.693 80.2015 330.964 80.2022Z" fill="#263238"/>
<path d="M62.8142 144.601C61.7169 144.598 60.6651 144.161 59.8892 143.385C59.1132 142.609 58.6762 141.558 58.6738 140.46V106.032H66.9547V140.46C66.9547 141.558 66.5184 142.612 65.742 143.388C64.9655 144.165 63.9124 144.601 62.8142 144.601Z" fill="white" stroke="#263238" stroke-linecap="round" stroke-linejoin="round"/>
<path d="M62.8142 144.601C61.7169 144.598 60.6651 144.161 59.8892 143.385C59.1132 142.609 58.6762 141.558 58.6738 140.46V119.287H66.9547V140.46C66.9547 141.558 66.5184 142.612 65.742 143.388C64.9655 144.165 63.9124 144.601 62.8142 144.601Z" fill="#263238" stroke="#263238" stroke-linecap="round" stroke-linejoin="round"/>
<path d="M68.1435 104.021H57.498V107.038H68.1435V104.021Z" fill="white" stroke="#263238" stroke-linecap="round" stroke-linejoin="round"/>
<path d="M50.2674 144.601C49.17 144.598 48.1183 144.161 47.3423 143.385C46.5663 142.609 46.1293 141.558 46.127 140.46V106.032H54.4078V140.46C54.4078 141.558 53.9716 142.611 53.1951 143.388C52.4186 144.164 51.3655 144.601 50.2674 144.601Z" fill="white" stroke="#263238" stroke-linecap="round" stroke-linejoin="round"/>
<path d="M50.2674 144.601C49.17 144.598 48.1183 144.161 47.3423 143.385C46.5663 142.609 46.1293 141.558 46.127 140.46V119.287H54.4078V140.46C54.4078 141.558 53.9716 142.612 53.1951 143.388C52.4186 144.165 51.3655 144.601 50.2674 144.601Z" fill="#263238" stroke="#263238" stroke-linecap="round" stroke-linejoin="round"/>
<path d="M55.5947 104.021H44.9492V107.038H55.5947V104.021Z" fill="white" stroke="#263238" stroke-linecap="round" stroke-linejoin="round"/>
<path d="M169.723 70.0822L173.021 62.1638C173.077 62.0362 173.169 61.9283 173.287 61.8541C173.405 61.7798 173.543 61.7425 173.682 61.747C173.822 61.754 173.956 61.8038 174.066 61.8897C174.176 61.9757 174.257 62.0935 174.298 62.2272L178.293 75.4004L181.338 65.6972C181.379 65.5607 181.463 65.4408 181.577 65.3546C181.691 65.2684 181.829 65.2202 181.972 65.217C182.113 65.2208 182.25 65.2657 182.366 65.3462C182.481 65.4267 182.571 65.5392 182.624 65.67L184.318 70.5443H193.478C195.353 68.5852 196.442 66.0059 196.54 63.2963C196.558 60.7653 195.639 58.3171 193.962 56.4219C192.284 54.5267 189.966 53.3181 187.451 53.0283C184.937 52.7384 182.404 53.3877 180.339 54.8515C178.274 56.3152 176.823 58.4902 176.264 60.9588C175.688 58.5075 174.232 56.3534 172.172 54.9059C170.111 53.4585 167.591 52.8188 165.09 53.1085C162.589 53.3982 160.281 54.5972 158.606 56.4772C156.931 58.3573 156.006 60.7874 156.006 63.3053C156.107 65.8148 157.048 68.2175 158.679 70.1275L169.723 70.0822Z" fill="#263238"/>
<path d="M183.839 71.9032C183.698 71.9038 183.56 71.8604 183.445 71.7793C183.33 71.6981 183.242 71.5831 183.195 71.4502L182.018 68.0618L178.928 77.91C178.884 78.0487 178.797 78.1699 178.68 78.2561C178.563 78.3424 178.421 78.3893 178.276 78.3902C178.13 78.3897 177.988 78.3417 177.872 78.2534C177.756 78.1651 177.672 78.0413 177.633 77.9009L173.547 64.4287L170.829 71.0244C170.777 71.1476 170.69 71.2529 170.579 71.327C170.468 71.4012 170.337 71.4409 170.203 71.4411H159.775C162.013 73.9417 164.804 76.1523 166.887 78.209C170.04 81.3256 173.13 84.551 176.346 87.5589C180.468 83.4909 184.618 79.4049 188.704 75.337C189.836 74.2045 191.069 73.081 192.21 71.9032H183.839Z" fill="#263238"/>
<path d="M31.0048 274.407L35.4473 275.948L40.2542 262.089L35.8117 260.548L31.0048 274.407Z" fill="white" stroke="#263238" stroke-miterlimit="10"/>
<path d="M28.8976 276.607L35.7539 278.985L36.6595 276.374L29.8032 273.996L28.8976 276.607Z" fill="white" stroke="#263238" stroke-miterlimit="10"/>
<path d="M30.9125 264.115L41.8945 267.924L50.6028 242.819L39.6208 239.009L30.9125 264.115Z" fill="white" stroke="#263238" stroke-miterlimit="10"/>
<path d="M36.2534 253.375L44.3594 256.187L49.1663 242.328L41.0603 239.517L36.2534 253.375Z" fill="#263238" stroke="#263238" stroke-miterlimit="10"/>
<path d="M34.8192 263.421L39.2617 264.962L44.0687 251.104L39.6262 249.563L34.8192 263.421Z" fill="#263238" stroke="#263238" stroke-miterlimit="10"/>
<path d="M30.1371 263.851L42.6855 268.204L43.7752 265.062L31.2267 260.71L30.1371 263.851Z" fill="white" stroke="#263238" stroke-miterlimit="10"/>
<path d="M42.2983 238.486L48.8379 240.754L50.2898 236.568L43.7502 234.3L42.2983 238.486Z" fill="white" stroke="#263238" stroke-miterlimit="10"/>
<path d="M38.5706 239.528L51.1191 243.881L52.2088 240.74L39.6603 236.387L38.5706 239.528Z" fill="white" stroke="#263238" stroke-miterlimit="10"/>
<path d="M47.0879 234.866L52.3427 219.699" stroke="#263238" stroke-miterlimit="10"/>
<path d="M339.253 423.359C365.437 423.359 386.664 418.572 386.664 412.668C386.664 406.764 365.437 401.977 339.253 401.977C313.068 401.977 291.842 406.764 291.842 412.668C291.842 418.572 313.068 423.359 339.253 423.359Z" fill="#263238" stroke="#263238" stroke-linecap="round" stroke-linejoin="round"/>
<path d="M302.696 171.02C302.696 171.02 296.282 174.943 296.354 176.664C296.427 178.385 293.962 209.778 293.682 213.701C293.401 217.624 289.668 225.724 289.378 229.402C289.088 233.081 290.012 236.768 291.09 238.462C292.169 240.157 296.128 245.574 296.128 245.574L306.773 229.13C307.034 225.54 307.089 221.937 306.936 218.34C306.773 210.503 302.696 171.02 302.696 171.02Z" fill="white" stroke="#263238" stroke-linecap="round" stroke-linejoin="round"/>
<path d="M343.658 93.2305C343.658 93.2305 332.333 92.5057 325.882 100.361C319.431 108.216 320.817 120.229 320.772 123.917C320.727 127.604 309.773 138.413 310.987 142.816C312.201 147.219 315.427 147.717 314.394 151.396C313.361 155.074 306.62 157.285 307.599 161.951C308.577 166.617 312.129 173.23 312.129 173.23L377.361 173.674C377.361 173.674 379.689 166.807 377.207 161.652C374.724 156.496 371.2 154.793 371.771 152.338C372.341 149.883 375.494 143.994 374.28 139.581C373.066 135.169 368.844 133.946 368.4 126.091C367.956 118.236 366.797 105.253 360.563 98.9111C354.33 92.5691 343.658 93.2305 343.658 93.2305Z" fill="#263238" stroke="#263238" stroke-linecap="round" stroke-linejoin="round"/>
<path d="M323.597 395.934C321.594 399.794 319.163 403.417 316.349 406.734C312.182 411.4 308.141 413.855 308.277 416.31C308.413 418.765 317.509 419.246 322.32 417.524C327.131 415.803 330.628 412.369 331.597 412.088C332.567 411.807 335.276 412.088 335.339 408.645C335.402 405.203 334.877 395.4 334.877 395.4L323.597 395.934Z" fill="white" stroke="#263238" stroke-linecap="round" stroke-linejoin="round"/>
<path d="M322.303 417.524C327.123 415.803 330.611 412.369 331.58 412.088C332.55 411.807 335.259 412.088 335.322 408.645C335.322 406.833 335.222 403.209 335.096 400.247C334.383 401.584 333.328 402.707 332.038 403.503C330.749 404.299 329.272 404.738 327.757 404.777C327.757 404.777 327.666 403.055 325.039 400.12C323.345 398.199 321.632 399.712 320.636 401.026L319.83 402.24L319.766 402.358C318.72 403.9 317.576 405.374 316.341 406.77C312.174 411.436 308.133 413.891 308.269 416.346C308.405 418.802 317.492 419.246 322.303 417.524Z" fill="white" stroke="#263238" stroke-linecap="round" stroke-linejoin="round"/>
<path d="M357.165 395.916C359.599 399.79 362.422 403.405 365.59 406.706C370.256 411.363 374.56 413.809 374.65 416.265C374.741 418.72 365.735 419.209 360.734 417.497C355.733 415.785 351.874 412.351 350.886 412.106C349.899 411.862 347.199 412.106 346.773 408.682C346.347 405.257 345.812 395.436 345.812 395.436L357.165 395.916Z" fill="white" stroke="#263238" stroke-linecap="round" stroke-linejoin="round"/>
<path d="M360.771 417.497C355.779 415.785 351.91 412.351 350.922 412.106C349.935 411.862 347.235 412.106 346.809 408.682C346.583 406.87 346.329 403.246 346.139 400.274C346.977 401.602 348.128 402.705 349.491 403.485C350.854 404.266 352.388 404.7 353.957 404.75C353.957 404.75 353.867 403.028 356.159 400.084C357.654 398.172 359.529 399.676 360.689 400.99C360.988 401.388 361.296 401.787 361.595 402.204L361.677 402.321C362.894 403.862 364.195 405.335 365.572 406.734C370.238 411.39 374.542 413.837 374.632 416.292C374.723 418.747 365.772 419.209 360.771 417.497Z" fill="white" stroke="#263238" stroke-linecap="round" stroke-linejoin="round"/>
<path d="M303.893 266.44C303.893 266.44 305.406 317.456 307.417 327.513C309.428 337.57 318.407 395.209 318.407 395.209C321.151 396.371 324.106 396.951 327.086 396.913H336.898L337.804 353.986L338.139 291.681L343.059 397.148C343.059 397.148 356.576 397.628 358.035 397.384C359.494 397.139 360.708 396.895 360.708 396.895L369.396 330.168L374.37 285.774L374.642 268.116C374.642 268.116 333.111 266.675 321.043 265.697C308.975 264.718 304.01 264.474 304.01 264.474L303.893 266.44Z" fill="#243573" stroke="#263238" stroke-linecap="round" stroke-linejoin="round"/>
<path d="M359.973 356.514C359.864 357.366 359.756 358.154 359.629 358.879" stroke="#263238" stroke-linecap="round" stroke-linejoin="round"/>
<path d="M361.087 295.096C361.087 295.096 361.93 331.445 360.453 351.178" stroke="#263238" stroke-linecap="round" stroke-linejoin="round"/>
<path d="M316.559 292.179C316.559 292.179 317.601 316.224 318.633 321.615" stroke="#263238" stroke-linecap="round" stroke-linejoin="round"/>
<path d="M355.271 276.859V295.214C357.623 295.847 360.028 296.263 362.456 296.455C366.18 296.7 373.129 296.455 373.129 296.455L373.627 289.506L355.271 276.859Z" fill="#263238" stroke="#263238" stroke-linecap="round" stroke-linejoin="round"/>
<path d="M304.662 290.992C304.662 290.992 314.094 293.973 318.062 294.218C322.03 294.462 325.745 294.96 325.745 294.96L325.256 290.005L304.164 288.021L304.662 290.992Z" fill="#263238" stroke="#263238" stroke-linecap="round" stroke-linejoin="round"/>
<path d="M333.291 151.622L325.889 159.966L305.359 174.943L309.735 265.715C309.735 265.715 326.098 270.118 340.141 271.341C354.184 272.564 372.24 269.348 372.24 269.348L369.586 174.218C369.586 174.218 361.595 162.44 357.5 159.26C353.405 156.08 351.529 153.135 346.102 152.646C340.675 152.157 333.291 151.622 333.291 151.622Z" fill="#243573" stroke="#263238" stroke-linecap="round" stroke-linejoin="round"/>
<path d="M324.702 156.089L302.696 171.065L306.148 226.249L304.979 231.794L295.729 242.449L299.67 261.167L297.912 287.577C297.912 287.577 306.655 290.521 312.58 291.246C316.992 291.719 321.425 291.964 325.862 291.98L326.623 255.921C326.623 255.921 329.55 196.062 329.894 193.407C330.238 190.752 333.291 151.731 333.291 151.731L324.702 156.089Z" fill="white" stroke="#263238" stroke-linecap="round" stroke-linejoin="round"/>
<path d="M325.057 158.345L314.402 185.063L325.899 189.837L315.046 191.812L324.658 229.475" stroke="#263238" stroke-linecap="round" stroke-linejoin="round"/>
<path d="M331.443 144.51C331.443 144.51 335.267 170.014 338.275 175.903C341.283 181.792 342.134 183.749 342.134 183.749C342.134 183.749 348.675 163.871 349.989 160.927C351.303 157.982 352.707 147.437 352.707 147.437C352.707 147.437 339.67 151.613 331.443 144.51Z" fill="white" stroke="#263238" stroke-linecap="round" stroke-linejoin="round"/>
<path d="M331.443 144.51C331.443 144.51 331.788 146.829 332.349 150.227C334.261 151.686 339.326 155.292 343.067 155.482C345.921 155.627 349.545 153.779 351.955 152.302C352.39 149.629 352.689 147.437 352.689 147.437C352.689 147.437 339.67 151.613 331.443 144.51Z" fill="#263238" stroke="#263238" stroke-linecap="round" stroke-linejoin="round"/>
<path d="M326.253 126.879C326.253 126.879 323.644 123.165 321.886 126.879C320.128 130.594 324.604 136.093 325.854 136.845C329.406 138.956 328.464 135.033 328.464 135.033L326.253 126.879Z" fill="white" stroke="#263238" stroke-linecap="round" stroke-linejoin="round"/>
<path d="M358.66 128.483C358.66 128.483 360.861 124.642 363.018 128.266C365.174 131.89 361.287 137.588 360.128 138.395C356.812 140.687 357.337 136.755 357.337 136.755L358.66 128.483Z" fill="white" stroke="#263238" stroke-linecap="round" stroke-linejoin="round"/>
<path d="M325.637 123.6C325.637 123.6 335.095 121.389 339.861 118.571C342.78 116.808 345.325 114.491 347.354 111.749C347.354 111.749 351.449 119.486 355.055 122.621C358.66 125.756 359.412 125.937 359.412 125.937C359.412 125.937 357.682 139.482 355.725 144.193C353.768 148.904 347.381 153.489 341.419 152.166C338.031 151.423 332.16 148.977 330.457 144.854C328.753 140.732 325.637 123.6 325.637 123.6Z" fill="white" stroke="#263238" stroke-linecap="round" stroke-linejoin="round"/>
<path d="M349.772 134.01C346.836 134.082 337.006 134.1 331.933 131.038C329.899 129.854 327.995 128.46 326.252 126.879C326.433 127.785 326.651 128.918 326.886 130.096L327.991 130.902L330.764 141.375L329.468 141.656C329.742 142.727 330.071 143.782 330.456 144.818C332.159 148.94 338.03 151.387 341.418 152.13C347.371 153.443 353.74 148.886 355.715 144.184C355.249 143.27 355.111 142.224 355.326 141.221C355.896 138.259 356.603 133.067 356.603 133.067L358.623 131.255C358.732 130.594 358.823 129.96 358.913 129.38C356.467 131.074 351.883 133.955 349.772 134.01Z" fill="#243573" stroke="#263238" stroke-linecap="round" stroke-linejoin="round"/>
<path d="M338.981 129.634C338.981 129.634 335.819 125.792 331.67 126.146" stroke="#263238" stroke-linecap="round" stroke-linejoin="round"/>
<path d="M347.127 130.395C348.136 129.334 349.389 128.536 350.777 128.072C352.166 127.608 353.647 127.491 355.091 127.731" stroke="#263238" stroke-linecap="round" stroke-linejoin="round"/>
<path d="M329.85 124.225C329.85 124.225 334.38 122.413 338.393 123.264" stroke="#263238" stroke-linecap="round" stroke-linejoin="round"/>
<path d="M347.498 124.252C348.691 123.642 350.044 123.414 351.371 123.599C352.698 123.784 353.937 124.372 354.918 125.285" stroke="#263238" stroke-linecap="round" stroke-linejoin="round"/>
<path d="M335.939 128.374C335.959 128.513 335.952 128.655 335.918 128.792C335.883 128.928 335.822 129.057 335.738 129.169C335.654 129.282 335.548 129.377 335.427 129.449C335.306 129.521 335.172 129.568 335.033 129.588C334.749 129.556 334.489 129.418 334.303 129.201C334.118 128.984 334.023 128.704 334.036 128.419C334.014 128.28 334.021 128.138 334.055 128.001C334.089 127.864 334.15 127.735 334.234 127.622C334.318 127.509 334.424 127.414 334.546 127.342C334.668 127.271 334.802 127.224 334.942 127.205C335.225 127.239 335.484 127.378 335.669 127.595C335.853 127.812 335.95 128.09 335.939 128.374Z" fill="#263238"/>
<path d="M352.344 129.552C352.368 129.692 352.364 129.835 352.331 129.973C352.298 130.111 352.237 130.241 352.153 130.354C352.068 130.468 351.961 130.563 351.838 130.634C351.715 130.705 351.579 130.75 351.438 130.766C351.155 130.736 350.895 130.6 350.709 130.384C350.524 130.169 350.428 129.89 350.441 129.606C350.417 129.467 350.421 129.323 350.454 129.186C350.487 129.048 350.548 128.918 350.633 128.804C350.718 128.69 350.825 128.595 350.947 128.525C351.07 128.454 351.206 128.409 351.347 128.392C351.63 128.422 351.891 128.559 352.076 128.774C352.261 128.99 352.357 129.268 352.344 129.552Z" fill="#263238"/>
<path d="M376.744 165.819C376.744 165.819 382.026 168.266 383.992 172.161C385.958 176.057 401.677 218.268 401.605 221.457C401.532 224.646 396.332 228.324 391.458 228.823C386.583 229.321 379.48 220.487 378.42 219.02C377.36 217.552 377.17 200.374 377.17 200.374L376.744 165.819Z" fill="white" stroke="#263238" stroke-linecap="round" stroke-linejoin="round"/>
<path d="M351.846 154.549L354.419 238.933L355.325 292.161C360.258 293.374 365.312 294.027 370.392 294.109C374.628 294.198 378.841 293.446 382.786 291.898C382.786 291.898 381.245 258.784 380.974 253.384C380.702 247.984 378.908 237.683 378.908 237.683L376.77 165.819C376.77 165.819 356.865 156.506 351.846 154.549Z" fill="white" stroke="#263238" stroke-linecap="round" stroke-linejoin="round"/>
<path d="M357.501 159.205L366.624 188.968L358.307 191.223L366.398 195.146L356.305 227.21" fill="white"/>
<path d="M357.501 159.205L366.624 188.968L358.307 191.223L366.398 195.146L356.305 227.21" stroke="#263238" stroke-linecap="round" stroke-linejoin="round"/>
<path d="M363.861 186.431L352.545 240.646C352.545 240.646 360.282 243.092 365.936 243.364C371.589 243.636 383.367 243.599 383.367 243.599L395.145 193.063C395.145 193.063 371.96 190.843 363.861 186.431Z" fill="#263238" stroke="#263238" stroke-linecap="round" stroke-linejoin="round"/>
<path d="M367.801 236.958L368.172 220.016L377.151 221.91C377.151 221.91 371.216 234.983 367.801 236.958Z" fill="white" stroke="#263238" stroke-linecap="round" stroke-linejoin="round"/>
<path d="M374.677 213.892C374.677 213.892 372.286 210.467 371.515 209.724C370.745 208.981 366.94 206.789 366.206 206.789C365.472 206.789 361.531 206.544 360.77 206.544C360.009 206.544 359.149 208.265 359.928 208.999C360.707 209.733 363.416 209.978 363.416 209.978L365.273 212.696L356.893 211.962C356.893 211.962 355.497 213.439 355.814 214.68C356.052 215.521 356.355 216.342 356.72 217.135C356.689 218.936 356.783 220.738 357.001 222.526C357.327 224.003 358.813 224.492 360.852 225.715C362.89 226.938 369.712 226.204 369.712 226.204H372.865L374.677 213.892Z" fill="white" stroke="#263238" stroke-linecap="round" stroke-linejoin="round"/>
<path d="M395.108 215.595L373.364 212.668C373.364 212.668 371.669 226.657 369.957 231.314C368.245 235.971 367.801 236.958 367.801 236.958C367.801 236.958 390.587 236.451 395.959 235.962C401.332 235.472 404.349 232.274 404.113 227.862C403.878 223.45 401.187 219.029 401.187 219.029" fill="white"/>
<path d="M395.108 215.595L373.364 212.668C373.364 212.668 371.669 226.657 369.957 231.314C368.245 235.971 367.801 236.958 367.801 236.958C367.801 236.958 390.587 236.451 395.959 235.962C401.332 235.472 404.349 232.274 404.113 227.862C403.878 223.45 401.187 219.029 401.187 219.029" stroke="#263238" stroke-linecap="round" stroke-linejoin="round"/>
<path d="M304.436 230.87C304.436 230.87 309.51 234.05 310.778 235.038C312.047 236.025 312.155 242.394 312.962 243.617C313.768 244.841 312.817 245.583 311.349 245.583C309.881 245.583 307.662 240.927 307.662 240.927L307.571 239.205L297.206 242.648L294.488 237.991C294.488 237.991 297.569 230.87 304.436 230.87Z" fill="white" stroke="#263238" stroke-linecap="round" stroke-linejoin="round"/>
<path d="M228.931 423.359C255.115 423.359 276.341 418.572 276.341 412.668C276.341 406.764 255.115 401.977 228.931 401.977C202.746 401.977 181.52 406.764 181.52 412.668C181.52 418.572 202.746 423.359 228.931 423.359Z" fill="#263238" stroke="#263238" stroke-linecap="round" stroke-linejoin="round"/>
<path d="M265.959 158.617C265.959 158.617 272.174 189.81 273.28 195.581C274.385 201.353 276.414 215.069 278.716 221.085C281.017 227.101 280.265 234.802 279.114 236.967C277.96 238.849 276.635 240.62 275.155 242.258L267.436 232.193C267.436 232.193 262.842 182.87 262.67 175.885C262.498 168.9 265.959 158.617 265.959 158.617Z" fill="white" stroke="#263238" stroke-linecap="round" stroke-linejoin="round"/>
<path d="M270.054 230.961C270.054 230.961 274.947 234.014 275.807 235.309C276.668 236.605 277.284 238.254 276.614 239.658C275.943 241.063 272.292 245.303 271.368 246.127C270.444 246.952 269.665 243.663 269.556 240.836C269.447 238.009 270.054 230.961 270.054 230.961Z" fill="white" stroke="#263238" stroke-linecap="round" stroke-linejoin="round"/>
<path d="M243.743 402.013C243.743 402.013 259.082 409.47 260.051 410.919C261.02 412.369 257.523 414.299 248.382 414.299C239.24 414.299 238.968 413.094 235.335 412.133C231.702 411.173 224.463 411.889 223.485 409.724C222.506 407.558 224.21 400.102 224.21 400.102L243.743 402.013Z" fill="white" stroke="#263238" stroke-linecap="round" stroke-linejoin="round"/>
<path d="M223.378 405.864C223.378 405.864 236.062 413.565 234.948 416.211C233.834 418.856 224.665 418.856 219.836 418.131C215.007 417.407 204.742 410.883 204.198 408.51C203.655 406.136 205.014 402.494 212.452 401.778C219.89 401.062 223.378 405.864 223.378 405.864Z" fill="white" stroke="#263238" stroke-linecap="round" stroke-linejoin="round"/>
<path d="M261.883 280.03C261.883 280.03 254.635 335.848 253.376 344.029C252.116 352.211 248.121 365.203 245.965 375.069C244.742 380.872 243.835 386.736 243.247 392.636C243.026 394.315 243.066 396.017 243.364 397.683C243.672 400.093 243.718 402.013 243.718 402.013C240.491 402.823 237.208 403.386 233.897 403.699C229.811 403.943 224.275 403.943 224.275 403.943L222.463 388.306C222.463 388.306 223.813 365.203 224.61 358.471C225.407 351.739 226.259 298.802 226.223 297.352C226.187 295.903 225.869 283.155 225.869 283.155L250.558 280.51C250.558 280.51 253.928 270.888 258.993 271.368C264.057 271.848 261.883 280.03 261.883 280.03Z" fill="white" stroke="#263238" stroke-linecap="round" stroke-linejoin="round"/>
<path d="M259.028 271.368C253.963 270.888 250.593 280.51 250.593 280.51L225.877 283.155C225.877 283.155 225.959 286.544 226.04 290.023C228.677 290.258 231.114 290.394 233.197 290.394C241.116 290.381 249.028 289.937 256.898 289.062L257.958 277.973L259.616 289.271L260.758 288.899C261.465 283.518 261.918 280.011 261.918 280.011C261.918 280.011 264.092 271.848 259.028 271.368Z" fill="#263238" stroke="#263238" stroke-linecap="round" stroke-linejoin="round"/>
<path d="M200.092 281.715C200.092 281.715 200.092 282.059 200.146 282.684C200.481 289.262 202.475 327.377 203.082 334.408C203.761 342.109 200.364 350.526 200.536 357.502C200.708 364.478 202.348 402.258 202.348 402.258L204.16 408.51C204.16 408.51 208.418 405.628 212.504 405.628C216.59 405.628 223.376 405.864 223.376 405.864C223.376 405.864 223.729 400.809 223.693 399.132C223.657 397.456 223.503 391.431 223.503 391.431C223.503 391.431 230.416 359.912 230.832 357.266C231.249 354.621 236.613 308.904 236.576 307.436C236.54 305.968 237.709 285.538 237.709 285.538L200.092 281.715Z" fill="white" stroke="#263238" stroke-linecap="round" stroke-linejoin="round"/>
<path d="M237.455 290.349C237.609 287.559 237.718 285.565 237.718 285.565L200.092 281.715C200.092 281.715 200.092 282.059 200.146 282.684C200.146 283.482 200.246 284.741 200.336 286.308C209.134 287.885 224.4 290.367 233.197 290.367C234.647 290.394 236.06 290.376 237.455 290.349Z" fill="#263238" stroke="#263238" stroke-linecap="round" stroke-linejoin="round"/>
<path d="M227.816 133.982C227.816 133.982 223.839 134.653 222.326 136.429C220.809 138.156 219.445 140.011 218.249 141.973C218.04 142.644 194.647 156.841 194.647 156.841L196.333 224.537C196.333 224.537 197.03 234.965 195.789 238.517C193.692 245.5 192.675 252.762 192.772 260.052C192.989 268.705 193.551 282.702 193.551 282.702C193.551 282.702 220.323 288.03 233.198 288.03C241.117 288.011 249.029 287.56 256.899 286.68L257.959 275.581L259.571 286.906L265.071 285.094L269.601 251.572C269.601 251.572 272.754 244.469 272.717 242.911C272.681 241.352 273.515 239.359 272.6 238.027C271.685 236.696 270.054 234.032 270.054 234.032C270.054 234.032 265.959 160.619 265.959 158.617C265.959 156.614 253.845 144.864 252.949 144.42C252.052 143.976 246.525 135.758 239.359 133.548C232.192 131.337 227.816 133.982 227.816 133.982Z" fill="white" stroke="#263238" stroke-linecap="round" stroke-linejoin="round"/>
<path d="M220.524 144.193L217.842 168.574L228.859 173.692L226.105 181.964L253.656 230.381" stroke="#263238" stroke-linecap="round" stroke-linejoin="round"/>
<path d="M251.301 146.929L259.563 166.218L256.021 170.938L261.928 179.201L259.563 232.347" stroke="#263238" stroke-linecap="round" stroke-linejoin="round"/>
<path d="M226.793 137.317C226.994 142.073 227.857 146.778 229.357 151.296C231.74 157.955 247.531 203.899 247.531 203.899L257.742 239.849C257.742 239.849 256.392 203.228 256.356 201.679C256.32 200.13 248.618 149.294 248.618 149.294C248.618 149.294 247.305 141.086 245.23 137.978C243.155 134.87 229.248 129.099 226.793 137.317Z" fill="#243573" stroke="#263238" stroke-linecap="round" stroke-linejoin="round"/>
<path d="M225.814 133.765C225.814 133.765 219.39 134.426 220.523 144.193C221.655 153.96 223.15 160.619 223.15 160.619" stroke="#263238" stroke-width="2" stroke-linecap="round" stroke-linejoin="round"/>
<path d="M222.363 173.493C222.363 173.493 225.081 184.809 226.939 187.917C228.796 191.024 234.413 194.132 238.409 194.132" stroke="#263238" stroke-linecap="round" stroke-linejoin="round"/>
<path d="M230.951 170.829C230.951 170.829 233.94 183.921 234.439 186.367C234.937 188.814 233.288 193.461 230.516 198.145" stroke="#263238" stroke-linecap="round" stroke-linejoin="round"/>
<path d="M229.72 199.695C229.435 199.538 229.224 199.274 229.132 198.962C229.04 198.65 229.076 198.314 229.231 198.028L229.548 197.448C229.626 197.309 229.731 197.188 229.857 197.09C229.982 196.992 230.126 196.921 230.279 196.88C230.433 196.838 230.593 196.828 230.751 196.849C230.908 196.871 231.06 196.923 231.197 197.004C231.482 197.161 231.694 197.424 231.787 197.735C231.88 198.047 231.847 198.383 231.695 198.671L231.378 199.242C231.3 199.381 231.195 199.504 231.069 199.603C230.943 199.701 230.799 199.774 230.644 199.816C230.49 199.858 230.329 199.869 230.17 199.848C230.011 199.827 229.859 199.775 229.72 199.695Z" fill="#263238"/>
<path d="M239.893 194.376C239.893 194.536 239.861 194.694 239.798 194.841C239.736 194.988 239.644 195.121 239.529 195.232C239.414 195.343 239.278 195.429 239.129 195.486C238.979 195.543 238.82 195.569 238.661 195.563H237.999C237.673 195.556 237.363 195.421 237.136 195.187C236.909 194.953 236.783 194.639 236.785 194.313C236.784 194.154 236.815 193.996 236.876 193.849C236.938 193.702 237.028 193.569 237.143 193.458C237.257 193.347 237.393 193.26 237.542 193.203C237.69 193.146 237.849 193.12 238.008 193.126H238.67C238.996 193.135 239.306 193.271 239.534 193.504C239.762 193.738 239.891 194.05 239.893 194.376Z" fill="#263238"/>
<path d="M222.38 174.381L220.857 164.732C220.688 163.737 220.903 162.715 221.46 161.873C222.017 161.032 222.874 160.434 223.856 160.202C224.915 159.961 226.025 160.14 226.954 160.701C227.884 161.262 228.559 162.161 228.839 163.21L231.44 172.814" stroke="#263238" stroke-width="2" stroke-linecap="round" stroke-linejoin="round"/>
<path d="M258.193 180.902C260.373 180.684 261.937 178.468 261.685 175.954C261.433 173.44 259.461 171.579 257.281 171.797C255.1 172.016 253.536 174.231 253.788 176.745C254.04 179.259 256.012 181.121 258.193 180.902Z" fill="white" stroke="#263238" stroke-linecap="round" stroke-linejoin="round"/>
<path d="M247.051 137.833C247.051 137.833 255.776 150.109 258.557 175.133" stroke="#263238" stroke-width="2" stroke-linecap="round" stroke-linejoin="round"/>
<path d="M258.788 178.03C259.979 177.919 260.839 176.703 260.71 175.313C260.581 173.923 259.511 172.886 258.32 172.996C257.129 173.107 256.269 174.324 256.398 175.714C256.527 177.104 257.597 178.141 258.788 178.03Z" fill="white" stroke="#263238" stroke-linecap="round" stroke-linejoin="round"/>
<path d="M271.539 232.872C271.004 234.531 270.565 236.219 270.226 237.928C270.226 238.653 270.053 240.818 268.359 240.329C266.665 239.839 267.172 231.187 267.39 230.227C267.607 229.266 271.729 232.374 271.729 232.374" fill="white"/>
<path d="M271.539 232.872C271.004 234.531 270.565 236.219 270.226 237.928C270.226 238.653 270.053 240.818 268.359 240.329C266.665 239.839 267.172 231.187 267.39 230.227C267.607 229.266 271.729 232.374 271.729 232.374" stroke="#263238" stroke-linecap="round" stroke-linejoin="round"/>
<path d="M216.545 225.208C218.052 226.037 219.736 226.494 221.455 226.539C224.119 226.539 228.984 225.633 230.769 226.096C232.554 226.558 237.111 232.302 237.111 232.302C237.111 232.302 238.47 233.633 237.827 234.304C237.184 234.974 235.87 236.116 234.964 235.409C234.058 234.703 229.528 230.97 229.528 230.97L218.103 235.636L213.41 233.19L216.545 225.208Z" fill="white" stroke="#263238" stroke-linecap="round" stroke-linejoin="round"/>
<path d="M199.051 155.292C199.051 155.292 191.522 156.198 190.245 158.173C188.967 160.148 168.338 205.448 168.383 207.45C168.428 209.452 209.633 241.878 209.633 241.878L218.53 224.945L196.27 204.306L205.928 181.892" fill="white"/>
<path d="M199.051 155.292C199.051 155.292 191.522 156.198 190.245 158.173C188.967 160.148 168.338 205.448 168.383 207.45C168.428 209.452 209.633 241.878 209.633 241.878L218.53 224.945L196.27 204.306L205.928 181.892" stroke="#263238" stroke-linecap="round" stroke-linejoin="round"/>
<path d="M212.939 250.059L234.702 250.503L234.593 236.968" stroke="#263238" stroke-linecap="round" stroke-linejoin="round"/>
<path d="M218.132 235.636L212.379 237.783" stroke="#263238" stroke-linecap="round" stroke-linejoin="round"/>
<path d="M224.69 124.216C224.69 124.216 227.163 143.532 228.794 146.413C230.425 149.294 242.022 160.836 242.022 160.836C242.022 160.836 245.646 147.527 246.053 144.42C246.461 141.312 246.778 128.882 246.778 128.882L224.645 122.667L224.69 124.216Z" fill="white" stroke="#263238" stroke-linecap="round" stroke-linejoin="round"/>
<path d="M224.69 124.216C224.69 124.216 224.98 126.481 225.424 129.57C227.158 131.186 229.14 132.513 231.295 133.502C234.148 134.762 241.759 135.468 246.57 134.907C246.697 131.654 246.778 128.882 246.778 128.882L224.645 122.667L224.69 124.216Z" fill="#263238" stroke="#263238" stroke-linecap="round" stroke-linejoin="round"/>
<path d="M218.277 107.355C218.277 107.355 215.314 104.247 213.847 107.79C212.379 111.332 215.659 116.669 217.407 116.895C218.445 117.031 219.499 116.953 220.506 116.669C220.506 116.669 221.747 121.779 222.888 123.328C225.135 126.169 228.014 128.446 231.296 129.978C235.337 131.79 248.863 132.433 250.576 129.978C252.288 127.523 252.188 114.44 252.161 113.335C252.134 112.229 251.944 96.4106 251.944 96.4106C251.944 96.4106 253.158 90.9202 251.509 87.1422C249.86 83.3642 233.307 78.0822 229.149 80.2657C224.99 82.4491 220.198 86.2543 219.871 91.1377C219.545 96.021 219.745 104.012 219.745 104.012L218.277 107.355Z" fill="white" stroke="#263238" stroke-linecap="round" stroke-linejoin="round"/>
<path d="M242.739 100.469C242.739 100.469 245.502 113.153 244.868 114.676C244.234 116.198 242.249 116.225 239.767 114.893C237.285 113.561 238.58 111.785 238.58 111.785" stroke="#263238" stroke-linecap="round" stroke-linejoin="round"/>
<path d="M233.117 115.12C233.117 115.12 234.313 118.445 236.533 118.671C238.752 118.898 244.324 119.333 244.324 119.333" stroke="#263238" stroke-linecap="round" stroke-linejoin="round"/>
<path d="M225.189 100.913L225.543 106.241C225.543 106.241 227.572 107.355 232.229 107.355C236.886 107.355 238.417 106.241 238.417 106.241L238.29 100.913C238.29 100.913 231.531 96.918 225.189 100.913Z" stroke="#263238" stroke-linecap="round" stroke-linejoin="round"/>
<path d="M242.756 100.913L244.441 106.467C244.441 106.467 245.13 107.373 249.795 107.373C254.461 107.373 255.993 106.259 255.993 106.259L255.857 100.932C255.857 100.932 249.089 96.9179 242.756 100.913Z" stroke="#263238" stroke-linecap="round" stroke-linejoin="round"/>
<path d="M238.316 100.913H242.756" stroke="#263238" stroke-linecap="round" stroke-linejoin="round"/>
<path d="M225.217 100.913L216.465 106.023" stroke="#263238" stroke-linecap="round" stroke-linejoin="round"/>
<path d="M227.373 98.2498C227.373 98.2498 229.747 95.5862 235.128 97.8059" stroke="#263238" stroke-linecap="round" stroke-linejoin="round"/>
<path d="M243.572 98.2498C244.371 97.6086 245.336 97.2063 246.353 97.0893C247.371 96.9723 248.402 97.1453 249.325 97.5885" stroke="#263238" stroke-linecap="round" stroke-linejoin="round"/>
<path d="M233.044 103.36C233.044 104.338 232.69 105.172 232.201 105.172C231.712 105.172 231.295 104.374 231.295 103.36C231.295 102.345 231.648 101.548 232.147 101.548C232.645 101.548 233.025 102.372 233.044 103.36Z" fill="#263238"/>
<path d="M247.251 103.133C247.251 104.112 246.897 104.945 246.408 104.945C245.919 104.945 245.502 104.148 245.502 103.133C245.502 102.118 245.855 101.321 246.345 101.321C246.834 101.321 247.223 102.155 247.251 103.133Z" fill="#263238"/>
<path d="M232.047 82.6032C232.047 82.6032 234.185 87.3235 231.531 89.0449C230.712 89.5189 229.782 89.7685 228.835 89.7685C227.889 89.7685 226.959 89.5189 226.14 89.0449C226.846 90.0197 227.24 91.1854 227.271 92.3885C227.301 93.5916 226.967 94.7759 226.312 95.7855C225.011 97.9537 223.493 99.9845 221.782 101.847C221.782 101.847 222.262 107.582 221.266 108.252C220.269 108.922 217.551 107.917 217.506 106.232C217.461 104.547 216.373 101.176 216.328 99.491C216.283 97.8059 215.504 93.4208 215.504 93.4208C215.504 93.4208 208.691 90.3857 212.305 86.6802C215.92 82.9747 223.594 79.9396 223.594 79.9396C223.594 79.9396 223.766 73.1989 228.432 71.1785C233.098 69.1582 243.137 66.1231 243.218 69.4934C243.346 71.2279 243.034 72.9666 242.312 74.5489C242.312 74.5489 250.729 74.2136 256.6 79.9849C262.471 85.7561 262.271 91.1105 259.236 91.1105C256.201 91.1105 255.214 91.781 255.214 91.781C255.214 91.781 261.021 95.1513 258.031 96.8365C255.042 98.5216 251.961 96.5012 251.961 96.5012C251.961 96.5012 253.248 94.1456 249.461 91.0652C245.673 87.9848 232.047 82.6032 232.047 82.6032Z" fill="#263238" stroke="#263238" stroke-linecap="round" stroke-linejoin="round"/>
<path d="M117.085 423.359C143.269 423.359 164.496 418.572 164.496 412.668C164.496 406.764 143.269 401.977 117.085 401.977C90.9004 401.977 69.6738 406.764 69.6738 412.668C69.6738 418.572 90.9004 423.359 117.085 423.359Z" fill="#263238" stroke="#263238" stroke-linecap="round" stroke-linejoin="round"/>
<path d="M148.305 191.541V200.202L160.898 205.973C160.898 205.973 162.212 200.202 161.161 189.964L148.305 191.541Z" fill="#999999" stroke="#263238" stroke-linecap="round" stroke-linejoin="round"/>
<path d="M85.7999 399.386C82.9174 401.861 80.194 404.514 77.6459 407.332C74.0219 411.418 73.3152 415.486 76.6856 417.434C80.0559 419.382 85.3469 418.874 91.1181 415.268C96.8894 411.663 96.6538 410.213 100.024 409.017C103.394 407.821 105.56 405.393 105.56 401.552C105.56 397.71 93.2835 397.221 90.638 397.022C87.9924 396.822 85.7999 399.386 85.7999 399.386Z" fill="white" stroke="#263238" stroke-linecap="round" stroke-linejoin="round"/>
<path d="M105.534 401.552C105.534 401.552 100.098 403.961 97.4612 406.154C94.8248 408.347 89.57 416.238 83.4273 416.238C80.2992 416.241 77.2229 415.439 74.4941 413.909C74.4981 414.639 74.7021 415.353 75.0839 415.974C75.4657 416.596 76.0107 417.101 76.6595 417.434C80.0298 419.354 85.3208 418.874 91.0921 415.268C96.8633 411.662 96.6277 410.213 99.998 409.017C103.368 407.821 105.534 405.402 105.534 401.552Z" stroke="#263238" stroke-linecap="round" stroke-linejoin="round"/>
<path d="M146.856 399.386C149.738 401.86 152.461 404.514 155.01 407.332C158.634 411.418 159.34 415.486 155.97 417.433C152.6 419.381 147.309 418.874 141.537 415.268C135.766 411.662 136.002 410.213 132.631 409.017C129.261 407.821 127.096 405.393 127.096 401.551C127.096 397.71 139.372 397.221 142.018 397.021C144.663 396.822 146.856 399.386 146.856 399.386Z" fill="white" stroke="#263238" stroke-linecap="round" stroke-linejoin="round"/>
<path d="M127.123 401.552C127.123 401.552 132.559 403.961 135.196 406.154C137.832 408.347 143.087 416.238 149.229 416.238C152.358 416.241 155.434 415.439 158.163 413.909C158.159 414.639 157.955 415.353 157.573 415.974C157.191 416.596 156.646 417.101 155.997 417.434C152.627 419.354 147.336 418.874 141.565 415.268C135.793 411.662 136.029 410.213 132.659 409.017C129.288 407.821 127.123 405.402 127.123 401.552Z" stroke="#263238" stroke-linecap="round" stroke-linejoin="round"/>
<path d="M78.8242 262.725C78.8242 262.725 80.2648 316.859 80.9896 324.804C81.7144 332.75 83.8525 350.788 83.8525 351.785C83.8525 352.781 85.0484 392.691 85.0484 392.691L82.8831 396.315L83.6079 401.37L93.2296 403.291C98.0405 404.251 104.301 405.701 105.261 404.741C106.222 403.78 106.466 401.85 106.946 399.205C107.427 396.559 108.387 391.739 107.427 387.898C106.466 384.057 108.632 343.142 108.876 342.181C109.121 341.221 114.657 301.701 114.657 301.701C114.657 301.701 118.281 334.19 120.908 344.048C123.535 353.905 122.593 368.591 123.553 374.362C124.514 380.134 126.444 399.631 126.688 401.071C126.933 402.512 127.404 404.695 127.404 404.695C127.404 404.695 139.436 403.01 141.601 402.041C143.796 401.232 146.05 400.59 148.342 400.12C148.342 400.12 149.057 386.403 148.097 380.867C147.397 376.978 146.994 373.04 146.892 369.089C146.892 367.404 148.097 313.996 148.097 313.996L146.892 262.263C146.892 262.263 114.412 265.633 101.9 263.223C89.3882 260.813 79.0688 259.373 79.0688 259.373L78.8242 262.725Z" fill="#243573" stroke="#263238" stroke-linecap="round" stroke-linejoin="round"/>
<path d="M101.918 263.205C89.4063 260.804 79.0688 259.373 79.0688 259.373L78.8242 262.734C78.8242 262.734 78.9058 265.842 79.0417 270.662C84.7766 272.265 96.4278 275.083 107.689 275.083C119.594 275.083 138.557 271.459 147.091 269.728L146.91 262.254C146.91 262.254 114.43 265.615 101.918 263.205Z" fill="#263238" stroke="#263238" stroke-linecap="round" stroke-linejoin="round"/>
<path d="M143.713 385.117C143.867 386.775 143.967 387.726 143.967 387.726" stroke="#263238" stroke-linecap="round" stroke-linejoin="round"/>
<path d="M140.025 275.427C140.025 275.427 140.931 321.923 140.931 339.472C140.931 351.613 142.399 370.041 143.305 380.242" stroke="#263238" stroke-linecap="round" stroke-linejoin="round"/>
<path d="M91.3281 272.8L93.5206 323.246" stroke="#263238" stroke-linecap="round" stroke-linejoin="round"/>
<path d="M93.0762 327.187V335.522" stroke="#263238" stroke-linecap="round" stroke-linejoin="round"/>
<path d="M104.483 135.649C103.298 135.656 102.132 135.944 101.081 136.491C100.031 137.038 99.1251 137.827 98.44 138.793C96.9416 140.77 95.2744 142.613 93.457 144.302L71.9395 155.853L74.0414 237.991L74.8296 266.077C74.8296 266.077 91.355 271.586 107.101 271.586C122.848 271.586 150.925 265.244 150.925 265.244C150.925 265.244 148.569 155.817 149.357 155.817C150.145 155.817 133.874 141.683 126.526 137.969C119.178 134.254 104.483 135.649 104.483 135.649Z" fill="#243573" stroke="#263238" stroke-linecap="round" stroke-linejoin="round"/>
<path d="M98.3496 145.579C98.3496 145.579 106.685 160.936 110.2 167.957C113.715 174.979 120.275 185.081 120.275 185.081L131.246 155.69" stroke="#263238" stroke-linecap="round" stroke-linejoin="round"/>
<path d="M104.509 242.983L104.083 230.725L79.3223 229.285C79.3223 229.285 79.5669 247.332 80.0471 248.311" stroke="#263238" stroke-linecap="round" stroke-linejoin="round"/>
<path d="M104.809 251.663L104.691 248.22" stroke="#263238" stroke-linecap="round" stroke-linejoin="round"/>
<path d="M134.162 249.733L133.438 229.529C133.438 229.529 142.099 230.245 149.32 225.434" stroke="#263238" stroke-linecap="round" stroke-linejoin="round"/>
<path d="M97.0362 181.384C97.7972 183.785 100.117 185.199 102.209 184.528C104.302 183.858 105.362 181.366 104.592 178.965C103.822 176.564 101.512 175.151 99.419 175.822C97.3261 176.492 96.2661 178.984 97.0362 181.384Z" stroke="#263238" stroke-linecap="round" stroke-linejoin="round"/>
<path d="M97.2791 139.346C97.2791 139.346 94.4977 150.037 100.822 179.056" stroke="#263238" stroke-width="2" stroke-linecap="round" stroke-linejoin="round"/>
<path d="M102.77 180.052C102.584 180.428 102.293 180.743 101.933 180.959C101.573 181.174 101.159 181.282 100.74 181.27C100.32 181.257 99.9135 181.124 99.5672 180.887C99.221 180.65 98.9501 180.319 98.7866 179.933C98.6231 179.546 98.5739 179.121 98.6449 178.707C98.7159 178.294 98.904 177.909 99.187 177.6C99.47 177.29 99.836 177.068 100.241 176.96C100.647 176.852 101.075 176.862 101.474 176.99C102.05 177.227 102.509 177.682 102.751 178.255C102.994 178.828 103.001 179.474 102.77 180.052Z" stroke="#263238" stroke-linecap="round" stroke-linejoin="round"/>
<path d="M148.305 154.277C148.305 154.277 152.237 157.167 152.5 158.218C152.762 159.269 166.144 191.278 166.144 191.278L146.729 194.141L146.991 175.242" fill="#243573"/>
<path d="M148.305 154.277C148.305 154.277 152.237 157.167 152.5 158.218C152.762 159.269 166.144 191.278 166.144 191.278L146.729 194.141L146.991 175.242" stroke="#263238" stroke-linecap="round" stroke-linejoin="round"/>
<path d="M74.5663 154.802C74.5663 154.802 70.0997 155.328 69.0488 158.734C67.9978 162.141 60.3965 196.786 60.3965 196.786L88.2107 194.141L85.5833 168.157" fill="#243573"/>
<path d="M74.5663 154.802C74.5663 154.802 70.0997 155.328 69.0488 158.734C67.9978 162.141 60.3965 196.786 60.3965 196.786L88.2107 194.141L85.5833 168.157" stroke="#263238" stroke-linecap="round" stroke-linejoin="round"/>
<path d="M128.293 137.715C128.293 137.715 135.188 141.647 135.867 151.432C136.547 161.217 135.867 163.699 135.867 163.699" stroke="#263238" stroke-width="2" stroke-linecap="round" stroke-linejoin="round"/>
<path d="M138.982 176.229C138.982 176.229 138.366 187.799 137.107 191.142C135.847 194.485 130.864 198.444 126.914 199.079" stroke="#263238" stroke-linecap="round" stroke-linejoin="round"/>
<path d="M130.059 174.979C130.059 174.979 129.506 188.324 129.452 190.807C129.398 193.289 131.898 197.611 135.486 201.751" stroke="#263238" stroke-linecap="round" stroke-linejoin="round"/>
<path d="M136.514 203.205L136.62 203.119C137.114 202.719 137.189 201.994 136.789 201.501L136.281 200.875C135.881 200.381 135.156 200.305 134.663 200.706L134.557 200.791C134.064 201.191 133.988 201.916 134.388 202.41L134.896 203.036C135.296 203.529 136.021 203.605 136.514 203.205Z" fill="#263238"/>
<path d="M125.497 199.501L125.522 199.635C125.64 200.259 126.242 200.67 126.867 200.551L127.659 200.401C128.283 200.283 128.694 199.681 128.575 199.056L128.55 198.923C128.432 198.299 127.83 197.888 127.205 198.007L126.413 198.157C125.789 198.275 125.378 198.877 125.497 199.501Z" fill="#263238"/>
<path d="M139.119 177.108L138.856 167.387C138.832 166.373 138.43 165.404 137.73 164.67C137.029 163.937 136.081 163.49 135.069 163.418C133.994 163.338 132.932 163.687 132.113 164.388C131.295 165.089 130.788 166.086 130.702 167.16L129.887 177.017" stroke="#263238" stroke-width="2" stroke-linecap="round" stroke-linejoin="round"/>
<path d="M161.687 199.414L155.427 198.1L133.384 194.431L102.471 188.542L95.1414 185.307C95.1414 185.307 88.2105 176.247 87.6125 175.341C87.0146 174.435 79.1777 177.597 79.4585 178.802C79.7394 180.007 80.6635 192.048 81.2705 192.809C81.8776 193.57 88.6454 193.561 88.6454 193.561C88.6454 193.561 120.935 209.144 122.276 209.715C140.913 217.57 149.9 217.498 153.08 218.014C156.26 218.53 158.335 217.244 160.165 215.142C161.995 213.04 161.687 199.414 161.687 199.414Z" fill="#999999" stroke="#263238" stroke-linecap="round" stroke-linejoin="round"/>
<path d="M86.6695 175.214C86.6695 175.214 82.9096 175.368 77.3377 179.128C75.263 180.533 74.1758 181.538 74.1758 182.145C74.2945 182.868 74.4983 183.573 74.7828 184.247C78.3953 182.508 82.1784 181.147 86.0716 180.188" fill="#999999"/>
<path d="M86.6695 175.214C86.6695 175.214 82.9096 175.368 77.3377 179.128C75.263 180.533 74.1758 181.538 74.1758 182.145C74.2945 182.868 74.4983 183.573 74.7828 184.247C78.3953 182.508 82.1784 181.147 86.0716 180.188" stroke="#263238" stroke-linecap="round" stroke-linejoin="round"/>
<path d="M88.1738 184.854C88.1738 184.854 77.945 187.409 76.287 187.717C74.6291 188.025 74.3301 186.358 74.3301 185.76C74.3301 185.162 74.7831 184.247 76.586 183.35C78.389 182.453 87.458 180.034 87.458 180.034" fill="#999999"/>
<path d="M88.1738 184.854C88.1738 184.854 77.945 187.409 76.287 187.717C74.6291 188.025 74.3301 186.358 74.3301 185.76C74.3301 185.162 74.7831 184.247 76.586 183.35C78.389 182.453 87.458 180.034 87.458 180.034" stroke="#263238" stroke-linecap="round" stroke-linejoin="round"/>
<path d="M89.2341 189.52C89.2341 189.52 77.3384 190.725 76.4324 189.973C76.1551 189.671 75.9448 189.314 75.8153 188.926C75.6857 188.537 75.6397 188.125 75.6804 187.717L86.3712 185.452" fill="#999999"/>
<path d="M89.2341 189.52C89.2341 189.52 77.3384 190.725 76.4324 189.973C76.1551 189.671 75.9448 189.314 75.8153 188.926C75.6857 188.537 75.6397 188.125 75.6804 187.717L86.3712 185.452" stroke="#263238" stroke-linecap="round" stroke-linejoin="round"/>
<path d="M85.918 190.118L76.7402 190.571C76.7402 190.571 77.1842 191.93 77.6462 192.075C79.8205 192.612 82.0358 192.967 84.2691 193.135C85.7336 193.183 87.1928 193.335 88.636 193.588" fill="#999999"/>
<path d="M85.918 190.118L76.7402 190.571C76.7402 190.571 77.1842 191.93 77.6462 192.075C79.8205 192.612 82.0358 192.967 84.2691 193.135C85.7336 193.183 87.1928 193.335 88.636 193.588" stroke="#263238" stroke-linecap="round" stroke-linejoin="round"/>
<path d="M66.168 196.261C66.168 196.261 70.3627 214.381 71.4137 215.685C72.4647 216.99 81.126 215.685 89.7874 213.058C98.4487 210.431 135.187 194.693 135.187 194.693L140.433 195.735C140.433 195.735 138.331 189.176 134.662 188.913C130.992 188.65 88.2109 194.141 88.2109 194.141L66.168 196.261Z" fill="#999999" stroke="#263238" stroke-linecap="round" stroke-linejoin="round"/>
<path d="M102.879 124.098C102.879 124.098 102.879 124.488 102.879 125.149C102.96 128.601 103.296 139.563 104.174 142.209C105.225 145.353 119.395 171.862 120.482 169.76C121.57 167.658 128.093 139.056 128.093 139.056V127.776C128.093 127.776 124.677 130.657 118.381 130.657C112.084 130.657 102.879 124.098 102.879 124.098Z" fill="#999999" stroke="#263238" stroke-linecap="round" stroke-linejoin="round"/>
<path d="M123.898 139.645C125.367 138.748 126.772 137.749 128.102 136.655V127.776C128.102 127.776 124.686 130.657 118.39 130.657C112.093 130.657 102.879 124.098 102.879 124.098C102.879 124.098 102.879 124.488 102.879 125.149C102.879 126.363 102.97 128.51 103.078 130.902C103.327 131.3 103.605 131.679 103.912 132.035C105.724 134.127 114.403 139.382 116.505 139.908C118.607 140.433 121.533 140.95 123.898 139.645Z" fill="#263238" stroke="#263238" stroke-linecap="round" stroke-linejoin="round"/>
<path d="M134.398 108.877C134.398 108.877 138.593 106.512 138.593 110.979C138.593 115.446 134.661 120.691 134.661 120.691L134.398 108.877Z" fill="#999999" stroke="#263238" stroke-linecap="round" stroke-linejoin="round"/>
<path d="M96.8721 109.14C96.8721 109.14 91.0918 107.563 91.0918 112.818C91.0918 118.073 96.3466 121.471 96.3466 121.471H99.9706C99.9706 121.471 102.073 126.725 103.912 128.818C105.751 130.911 114.403 136.166 116.505 136.691C118.607 137.217 121.488 137.742 123.853 136.429C126.824 134.577 129.561 132.374 132.007 129.869C133.058 128.565 134.897 119.64 134.897 119.64C134.897 119.64 135.422 103.631 134.371 98.1229C133.32 92.6145 126.498 83.9531 117.049 82.9021C107.599 81.8512 98.675 89.4616 97.3704 95.4955C96.0657 101.53 96.8721 109.14 96.8721 109.14Z" fill="#999999" stroke="#263238" stroke-linecap="round" stroke-linejoin="round"/>
<path d="M113.923 113.344C113.923 113.344 112.111 117.013 115.236 118.064C118.362 119.115 122.321 118.852 123.11 117.276C123.898 115.699 122.584 113.869 122.584 113.869" stroke="#263238" stroke-linecap="round" stroke-linejoin="round"/>
<path d="M110.779 119.903C110.779 119.903 117.339 125.412 126.263 120.166" stroke="#263238" stroke-linecap="round" stroke-linejoin="round"/>
<path d="M114.449 124.886C114.449 124.886 119.967 128.039 123.636 124.361" stroke="#263238" stroke-linecap="round" stroke-linejoin="round"/>
<path d="M111.304 110.191C112.029 110.191 112.618 109.25 112.618 108.089C112.618 106.928 112.029 105.987 111.304 105.987C110.578 105.987 109.99 106.928 109.99 108.089C109.99 109.25 110.578 110.191 111.304 110.191Z" fill="#263238"/>
<path d="M125.475 107.826C125.475 108.986 124.886 109.928 124.161 109.928C123.437 109.928 122.848 109.022 122.848 107.826C122.848 106.63 123.437 105.733 124.161 105.733C124.886 105.733 125.475 106.666 125.475 107.826Z" fill="#263238"/>
<path d="M107.627 105.208C107.627 105.208 108.941 103.106 113.969 103.894" stroke="#263238" stroke-linecap="round" stroke-linejoin="round"/>
<path d="M122.059 104.157C122.059 104.157 124.423 100.479 128.102 104.157" stroke="#263238" stroke-linecap="round" stroke-linejoin="round"/>
<path d="M134.398 98.1049C134.057 96.5465 133.467 95.0535 132.65 93.6836C132.344 95.1362 132.237 96.6236 132.333 98.1049C132.713 100.026 134.063 102.707 134.063 104.048C134.063 105.389 133.864 110.762 134.824 110.001C134.919 109.9 134.996 109.784 135.051 109.656C135.111 105.795 134.893 101.935 134.398 98.1049Z" fill="#263238" stroke="#263238" stroke-linecap="round" stroke-linejoin="round"/>
<path d="M121.207 87.2328C122.891 87.1436 124.568 86.9408 126.226 86.6258C123.549 84.6219 120.394 83.3538 117.075 82.9474C107.626 81.8965 98.7016 89.5069 97.3969 95.5408C96.0923 101.575 96.8715 109.185 96.8715 109.185C96.8715 109.185 98.9553 110.635 99.7254 109.104C100.495 107.573 99.7254 105.072 100.495 102.39C101.266 99.7084 102.407 98.3585 102.597 96.2475C102.788 94.1365 101.447 91.0743 102.217 89.3438C102.987 87.6133 107.78 84.3608 110.851 85.5114C114.155 86.763 117.675 87.348 121.207 87.2328Z" fill="#263238" stroke="#263238" stroke-linecap="round" stroke-linejoin="round"/>
</svg>
