<svg width="358" height="349" viewBox="0 0 358 349" fill="none" xmlns="http://www.w3.org/2000/svg">
<path d="M95.5237 -24.8117C55.6672 -6.52154 41.3052 30.646 43.0467 74.4643C44.6216 114.09 58.873 142.358 92.71 163.041C138.73 191.17 191.369 177.43 228.609 138.414C258.784 106.8 220.104 52.3347 257.91 30.4107C289.883 11.8684 320.899 60.9927 351.964 40.9655C390.67 16.0121 386.999 -37.3551 362.692 -76.4706C341.213 -111.036 309.032 -129.344 268.991 -122.072C216.383 -112.517 253.392 -20.3348 203.157 -2.02372C162.79 12.6903 134.573 -42.7315 95.5237 -24.8117Z" stroke="#BABABA" stroke-opacity="0.5" stroke-width="0.5"/>
<path d="M99.1272 -18.3707C59.2707 -0.0806245 44.9087 37.0869 46.6502 80.9052C48.2251 120.531 62.4765 148.799 96.3135 169.482C142.334 197.611 194.972 183.871 232.213 144.854C262.387 113.241 223.708 58.7757 261.513 36.8516C293.487 18.3094 324.503 67.4336 355.568 47.4064C394.274 22.453 390.603 -30.9142 366.296 -70.0297C344.816 -104.596 312.635 -122.903 272.594 -115.631C219.986 -106.076 256.996 -13.8939 206.76 4.4172C166.393 19.1312 138.177 -36.2906 99.1272 -18.3707Z" stroke="#BABABA" stroke-opacity="0.5" stroke-width="0.5"/>
<path d="M102.731 -11.9293C62.8742 6.36078 48.5123 43.5284 50.2538 87.3466C51.8286 126.973 66.08 155.241 99.917 175.923C145.937 204.052 198.576 190.312 235.816 151.296C265.991 119.683 227.312 65.2171 265.117 43.293C297.09 24.7508 328.106 73.8751 359.171 53.8478C397.877 28.8944 394.206 -24.4728 369.899 -63.5883C348.42 -98.1541 316.239 -116.461 276.198 -109.189C223.59 -99.6351 260.599 -7.45248 210.364 10.8586C169.997 25.5726 141.78 -29.8492 102.731 -11.9293Z" stroke="#BABABA" stroke-opacity="0.5" stroke-width="0.5"/>
<path d="M106.33 -5.48842C66.4738 12.8017 52.1119 49.9693 53.8534 93.7875C55.4283 133.414 69.6796 161.681 103.517 182.364C149.537 210.493 202.175 196.753 239.416 157.737C269.59 126.124 230.911 71.658 268.716 49.7339C300.69 31.1917 331.706 80.316 362.771 60.2887C401.477 35.3354 397.806 -18.0319 373.499 -57.1474C352.019 -91.7132 319.838 -110.02 279.797 -102.748C227.189 -93.1942 264.199 -1.01156 213.963 17.2995C173.596 32.0136 145.38 -23.4083 106.33 -5.48842Z" stroke="#BABABA" stroke-opacity="0.5" stroke-width="0.5"/>
<path d="M109.934 0.952737C70.0773 19.2429 55.7154 56.4104 57.4569 100.229C59.0318 139.855 73.2831 168.123 107.12 188.805C153.14 216.934 205.779 203.194 243.019 164.178C273.194 132.565 234.515 78.0991 272.32 56.1751C304.293 37.6329 335.309 86.7571 366.374 66.7299C405.081 41.7765 401.409 -11.5907 377.103 -50.7062C355.623 -85.272 323.442 -103.579 283.401 -96.3072C230.793 -86.753 267.802 5.4296 217.567 23.7407C177.2 38.4547 148.984 -16.9671 109.934 0.952737Z" stroke="#BABABA" stroke-opacity="0.5" stroke-width="0.5"/>
<path d="M114.789 9.26499C74.9328 27.5551 60.5709 64.7227 62.3124 108.541C63.8872 148.167 78.1386 176.435 111.976 197.117C157.996 225.247 210.634 211.506 247.875 172.49C278.049 140.877 239.37 86.4114 277.175 64.4874C309.149 45.9451 340.165 95.0694 371.23 75.0422C409.936 50.0888 406.265 -3.27844 381.958 -42.394C360.478 -76.9598 328.297 -95.2669 288.256 -87.995C235.648 -78.4407 272.658 13.7419 222.422 32.0529C182.055 46.767 153.839 -8.65486 114.789 9.26499Z" stroke="#BABABA" stroke-opacity="0.5" stroke-width="0.5"/>
<path d="M119.643 17.5765C79.7863 35.8666 65.4244 73.0342 67.1659 116.852C68.7408 156.479 82.9921 184.746 116.829 205.429C162.849 233.558 215.488 219.818 252.728 180.802C282.903 149.189 244.224 94.7229 282.029 72.7989C314.002 54.2566 345.018 103.381 376.083 83.3537C414.79 58.4003 411.118 5.03309 386.812 -34.0824C365.332 -68.6483 333.151 -86.9554 293.11 -79.6834C240.502 -70.1292 277.511 22.0534 227.276 40.3645C186.909 55.0785 158.693 -0.343337 119.643 17.5765Z" stroke="#BABABA" stroke-opacity="0.5" stroke-width="0.5"/>
<path d="M124.498 25.8888C84.6418 44.1789 70.2798 81.3465 72.0213 125.165C73.5962 164.791 87.8476 193.059 121.685 213.741C167.705 241.87 220.343 228.13 257.584 189.114C287.758 157.501 249.079 103.035 286.884 81.1111C318.858 62.5689 349.874 111.693 380.939 91.6659C419.645 66.7126 415.974 13.3453 391.667 -25.7702C370.187 -60.336 338.006 -78.6431 297.965 -71.3712C245.357 -61.817 282.367 30.3656 232.131 48.6767C191.764 63.3908 163.548 7.96892 124.498 25.8888Z" stroke="#BABABA" stroke-opacity="0.5" stroke-width="0.5"/>
<path d="M129.356 34.2001C89.4992 52.4902 75.1373 89.6577 76.8788 133.476C78.4536 173.102 92.705 201.37 126.542 222.052C172.562 250.182 225.201 236.441 262.441 197.425C292.616 165.812 253.937 111.346 291.742 89.4224C323.715 70.8802 354.731 120.004 385.796 99.9772C424.502 75.0238 420.831 21.6566 396.524 -17.4589C375.045 -52.0247 342.864 -70.3319 302.823 -63.0599C250.215 -53.5057 287.224 38.6769 236.989 56.988C196.622 71.702 168.405 16.2802 129.356 34.2001Z" stroke="#BABABA" stroke-opacity="0.5" stroke-width="0.5"/>
<path d="M134.209 42.5121C94.3527 60.8022 79.9908 97.9698 81.7323 141.788C83.3072 181.414 97.5585 209.682 131.396 230.364C177.416 258.494 230.054 244.753 267.295 205.737C297.469 174.124 258.79 119.658 296.595 97.7344C328.569 79.1922 359.585 128.316 390.65 108.289C429.356 83.3358 425.685 29.9686 401.378 -9.14688C379.898 -43.7127 347.717 -62.0198 307.676 -54.7479C255.068 -45.1937 292.078 46.9889 241.842 65.3C201.475 80.0141 173.259 24.5922 134.209 42.5121Z" stroke="#BABABA" stroke-opacity="0.5" stroke-width="0.5"/>
<path d="M139.065 50.8236C99.2082 69.1137 84.8462 106.281 86.5877 150.1C88.1626 189.726 102.414 217.993 136.251 238.676C182.271 266.805 234.91 253.065 272.15 214.049C302.325 182.436 263.645 127.97 301.451 106.046C333.424 87.5037 364.44 136.628 395.505 116.601C434.211 91.6474 430.54 38.2802 406.233 -0.835357C384.754 -35.4012 352.573 -53.7083 312.532 -46.4364C259.924 -36.8822 296.933 55.3004 246.698 73.6115C206.331 88.3256 178.114 32.9037 139.065 50.8236Z" stroke="#BABABA" stroke-opacity="0.5" stroke-width="0.5"/>
<path d="M143.922 59.1358C104.066 77.426 89.7037 114.594 91.4452 158.412C93.0201 198.038 107.271 226.306 141.108 246.988C187.129 275.117 239.767 261.377 277.008 222.361C307.182 190.748 268.503 136.282 306.308 114.358C338.282 95.816 369.298 144.94 400.363 124.913C439.069 99.9596 435.398 46.5924 411.091 7.4769C389.611 -27.0889 357.43 -45.3961 317.389 -38.1241C264.781 -28.5699 301.791 63.6127 251.555 81.9238C211.188 96.6378 182.972 41.216 143.922 59.1358Z" stroke="#BABABA" stroke-opacity="0.5" stroke-width="0.5"/>
<path d="M148.776 67.4471C108.919 85.7372 94.5572 122.905 96.2987 166.723C97.8736 206.349 112.125 234.617 145.962 255.299C191.982 283.429 244.621 269.688 281.861 230.672C312.036 199.059 273.356 144.594 311.162 122.669C343.135 104.127 374.151 153.252 405.216 133.224C443.922 108.271 440.251 54.9037 415.944 15.7882C394.465 -18.7776 362.284 -37.0848 322.243 -29.8128C269.635 -20.2586 306.644 71.924 256.409 90.2351C216.042 104.949 187.825 49.5273 148.776 67.4471Z" stroke="#BABABA" stroke-opacity="0.5" stroke-width="0.5"/>
<path d="M153.629 75.7591C113.773 94.0493 99.4107 131.217 101.152 175.035C102.727 214.661 116.978 242.929 150.815 263.611C196.836 291.741 249.474 278 286.715 238.984C316.889 207.371 278.21 152.906 316.015 130.981C347.989 112.439 379.005 161.564 410.07 141.536C448.776 116.583 445.105 63.2157 420.798 24.1002C399.318 -10.4656 367.137 -28.7728 327.096 -21.5008C274.488 -11.9466 311.498 80.236 261.262 98.5471C220.895 113.261 192.679 57.8393 153.629 75.7591Z" stroke="#BABABA" stroke-opacity="0.5" stroke-width="0.5"/>
<path d="M158.489 84.0711C118.632 102.361 104.27 139.529 106.012 183.347C107.586 222.973 121.838 251.241 155.675 271.923C201.695 300.053 254.333 286.312 291.574 247.296C321.749 215.683 283.069 161.218 320.874 139.294C352.848 120.751 383.864 169.876 414.929 149.848C453.635 124.895 449.964 71.5277 425.657 32.4122C404.178 -2.15362 371.997 -20.4608 331.955 -13.1888C279.348 -3.63459 316.357 88.548 266.122 106.859C225.755 121.573 197.538 66.1513 158.489 84.0711Z" stroke="#BABABA" stroke-opacity="0.5" stroke-width="0.5"/>
<path d="M163.342 92.3829C123.486 110.673 109.124 147.841 110.865 191.659C112.44 231.285 126.691 259.553 160.528 280.235C206.549 308.365 259.187 294.624 296.428 255.608C326.602 223.995 287.923 169.529 325.728 147.605C357.702 129.063 388.718 178.187 419.783 158.16C458.489 133.207 454.818 79.8395 430.511 40.724C409.031 6.15814 376.85 -12.149 336.809 -4.87705C284.201 4.67717 321.21 96.8598 270.975 115.171C230.608 129.885 202.392 74.4631 163.342 92.3829Z" stroke="#BABABA" stroke-opacity="0.5" stroke-width="0.5"/>
<path d="M168.198 100.695C128.341 118.985 113.979 156.152 115.721 199.971C117.295 239.597 131.547 267.865 165.384 288.547C211.404 316.676 264.042 302.936 301.283 263.92C331.458 232.307 292.778 177.841 330.583 155.917C362.557 137.375 393.573 186.499 424.638 166.472C463.344 141.518 459.673 88.1512 435.366 49.0357C413.887 14.4699 381.706 -3.83723 341.664 3.43471C289.057 12.9889 326.066 105.172 275.831 123.483C235.464 138.197 207.247 82.7748 168.198 100.695Z" stroke="#BABABA" stroke-opacity="0.5" stroke-width="0.5"/>
<path d="M173.053 109.007C133.196 127.297 118.835 164.464 120.576 208.283C122.151 247.909 136.402 276.177 170.239 296.859C216.26 324.988 268.898 311.248 306.139 272.232C336.313 240.619 297.634 186.153 335.439 164.229C367.413 145.687 398.428 194.811 429.493 174.784C468.2 149.83 464.528 96.4633 440.222 57.3477C418.742 22.7819 386.561 4.47479 346.52 11.7467C293.912 21.301 330.921 113.484 280.686 131.795C240.319 146.509 212.103 91.0868 173.053 109.007Z" stroke="#BABABA" stroke-opacity="0.5" stroke-width="0.5"/>
</svg>
